<svg width="269" height="296" viewBox="0 0 269 296" fill="none" xmlns="http://www.w3.org/2000/svg">
<path d="M269 128.5C269 199.469 211.692 257 141 257C70.3076 257 13 199.469 13 128.5C13 57.5314 70.3076 0 141 0C211.692 0 269 57.5314 269 128.5Z" fill="#F5F8FF"/>
<path d="M78.6266 233.808C78.6266 214.039 94.6528 198.013 114.422 198.013H169.308C189.078 198.013 205.104 214.039 205.104 233.808V260.058H78.6266V233.808Z" fill="#4C8BFF"/>
<path d="M122.774 187.274C122.774 180.685 128.116 175.343 134.706 175.343H151.411C158 175.343 163.342 180.685 163.342 187.274V199.206C163.342 205.796 158 211.138 151.411 211.138H134.706C128.116 211.138 122.774 205.796 122.774 199.206V187.274Z" fill="#FFAB48"/>
<path fill-rule="evenodd" clip-rule="evenodd" d="M14.4872 0C6.48612 0 0 6.48612 0 14.4872V34.5494C0 42.5505 6.48612 49.0366 14.4872 49.0366H63.6606C66.5591 52.2533 70.9602 55.4522 77.4361 57.7283C77.9206 57.8986 78.3284 57.0657 77.9381 56.7319C75.7857 54.8911 73.6289 52.2408 72.8871 49.0366H96.4904C104.491 49.0366 110.978 42.5505 110.978 34.5494V14.4872C110.978 6.48612 104.491 0 96.4904 0H14.4872Z" fill="#337AFF"/>
<path d="M121.64 154.21L116.883 145.359C116.288 144.252 114.7 144.252 114.105 145.359L109.348 154.21C108.743 155.254 108.397 156.467 108.397 157.761C108.397 161.681 111.574 164.859 115.494 164.859C119.414 164.859 122.592 161.681 122.592 157.761C122.592 156.467 122.245 155.254 121.64 154.21Z" fill="white"/>
<path d="M115.01 153.507C115.01 167.449 103.708 178.752 89.7661 178.752C75.824 178.752 64.5218 167.449 64.5218 153.507C64.5218 139.565 75.824 128.263 89.7661 128.263C103.708 128.263 115.01 139.565 115.01 153.507Z" fill="#FF9C27"/>
<path d="M218.084 153.507C218.084 167.449 206.782 178.752 192.84 178.752C178.898 178.752 167.595 167.449 167.595 153.507C167.595 139.565 178.898 128.263 192.84 128.263C206.782 128.263 218.084 139.565 218.084 153.507Z" fill="#FF9C27"/>
<path d="M204.842 138.864C204.842 171.032 176.394 197.11 141.301 197.11C106.208 197.11 77.7596 171.032 77.7596 138.864C77.7596 106.695 106.208 80.6176 141.301 80.6176C176.394 80.6176 204.842 106.695 204.842 138.864Z" fill="#FFBA68"/>
<mask id="mask0_6_78" style="mask-type:alpha" maskUnits="userSpaceOnUse" x="77" y="80" width="128" height="118">
<path d="M204.842 138.853C204.842 171.022 176.394 197.099 141.301 197.099C106.208 197.099 77.7596 171.022 77.7596 138.853C77.7596 106.685 106.208 80.607 141.301 80.607C176.394 80.607 204.842 106.685 204.842 138.853Z" fill="#FFAB49"/>
</mask>
<g mask="url(#mask0_6_78)">
<path d="M119.363 168.777C119.363 182.379 108.259 193.405 94.5622 193.405C80.8651 193.405 69.7614 182.379 69.7614 168.777C69.7614 155.175 80.8651 144.148 94.5622 144.148C108.259 144.148 119.363 155.175 119.363 168.777Z" fill="#FF9A24"/>
<path d="M211.816 168.777C211.816 182.379 200.712 193.405 187.015 193.405C173.318 193.405 162.215 182.379 162.215 168.777C162.215 155.175 173.318 144.148 187.015 144.148C200.712 144.148 211.816 155.175 211.816 168.777Z" fill="#FF9A24"/>
</g>
<path d="M143.948 157.386C143.948 158.848 142.763 160.034 141.301 160.034C139.839 160.034 138.653 158.848 138.653 157.386C138.653 155.924 139.839 154.738 141.301 154.738C142.763 154.738 143.948 155.924 143.948 157.386Z" fill="black"/>
<path d="M128.063 147.052C128.063 149.835 125.692 152.091 122.768 152.091C119.844 152.091 117.473 149.835 117.473 147.052C117.473 144.269 119.844 142.013 122.768 142.013C125.692 142.013 128.063 144.269 128.063 147.052Z" fill="black"/>
<path fill-rule="evenodd" clip-rule="evenodd" d="M125.476 139.85C125.994 140.769 125.631 141.915 124.665 142.408C124.14 142.676 123.344 143.225 122.777 143.911C122.215 144.592 122.06 145.166 122.186 145.667C122.441 146.682 121.783 147.701 120.716 147.944C119.649 148.187 118.578 147.561 118.323 146.545C117.809 144.5 118.678 142.757 119.656 141.574C120.629 140.396 121.889 139.537 122.787 139.078C123.754 138.585 124.957 138.93 125.476 139.85Z" fill="black"/>
<path d="M165.129 147.052C165.129 149.835 162.758 152.091 159.834 152.091C156.909 152.091 154.539 149.835 154.539 147.052C154.539 144.268 156.909 142.012 159.834 142.012C162.758 142.012 165.129 144.268 165.129 147.052Z" fill="black"/>
<path fill-rule="evenodd" clip-rule="evenodd" d="M162.541 139.85C163.06 140.769 162.697 141.915 161.731 142.408C161.205 142.676 160.409 143.225 159.843 143.911C159.28 144.591 159.125 145.166 159.251 145.667C159.506 146.682 158.848 147.701 157.782 147.944C156.715 148.187 155.644 147.56 155.389 146.545C154.875 144.5 155.744 142.757 156.721 141.574C157.695 140.396 158.954 139.537 159.853 139.078C160.819 138.584 162.023 138.93 162.541 139.85Z" fill="black"/>
<path fill-rule="evenodd" clip-rule="evenodd" d="M126.728 164.899C136.218 161.942 146.383 161.942 155.874 164.899C156.893 165.216 157.432 166.213 157.077 167.126C156.723 168.039 155.609 168.521 154.59 168.204C145.936 165.508 136.666 165.508 128.011 168.204C126.992 168.521 125.879 168.039 125.524 167.126C125.17 166.213 125.709 165.216 126.728 164.899Z" fill="#A75A00"/>
<path fill-rule="evenodd" clip-rule="evenodd" d="M122.573 134.786C124.474 135.07 126.012 136.057 126.793 136.824C127.524 137.541 128.697 137.529 129.414 136.799C130.131 136.068 130.12 134.895 129.389 134.178C128.134 132.946 125.904 131.536 123.121 131.12C120.254 130.693 116.919 131.342 113.661 134.082C112.877 134.741 112.776 135.91 113.435 136.694C114.094 137.477 115.263 137.578 116.046 136.919C118.49 134.864 120.756 134.515 122.573 134.786Z" fill="#905A09"/>
<path fill-rule="evenodd" clip-rule="evenodd" d="M161.573 126.786C163.474 127.07 165.012 128.057 165.793 128.824C166.524 129.541 167.697 129.529 168.414 128.799C169.131 128.068 169.12 126.895 168.389 126.178C167.134 124.946 164.904 123.536 162.121 123.12C159.254 122.693 155.919 123.342 152.661 126.082C151.877 126.741 151.776 127.91 152.435 128.694C153.094 129.477 154.263 129.578 155.046 128.919C157.49 126.864 159.756 126.515 161.573 126.786Z" fill="#905A09"/>
<path d="M115.859 66.2894C134.96 73.8912 148 51.8901 182.3 77.901C191.617 76.7639 182.3 43.6773 195.959 62.6227C206.886 77.779 197.281 81.8361 191.486 80.6138C214.461 95.8923 227.501 145.395 199.685 140.849C165.944 135.335 178.572 91.3464 169.879 102.347C161.186 113.347 91.6542 146.545 77.3574 140.849C67.2935 136.839 67.2935 122.783 77.3574 118.848C76.1162 117.422 69.2805 118.505 67.2935 108.726C65.3064 98.948 87.7088 81.9754 97.23 77.901C97.23 67.5116 95.6579 58.2501 115.859 66.2894Z" fill="black"/>
<path d="M150.665 243.333C147.942 241.545 147.184 237.887 148.973 235.164L168.697 205.133C170.485 202.41 174.143 201.652 176.866 203.441L206.228 222.725C217.244 229.961 220.309 244.756 213.073 255.772C205.838 266.788 191.043 269.853 180.027 262.618L150.665 243.333Z" fill="#337AFF"/>
<g filter="url(#filter0_d_6_78)">
<path fill-rule="evenodd" clip-rule="evenodd" d="M110.803 184.606C108.843 187.589 109.673 191.596 112.657 193.555L116.482 196.067C114.026 195.647 111.441 196.675 109.986 198.891C108.026 201.874 108.856 205.881 111.84 207.84L119.871 213.115C119.391 213.515 118.96 213.991 118.599 214.541C116.64 217.524 117.47 221.531 120.453 223.49L136.77 234.207C137.425 234.637 138.129 234.933 138.85 235.101C149.4 241.592 163.268 238.555 170.114 228.132C176.052 219.091 174.791 207.407 167.728 199.832L164.557 183.544C163.766 179.482 159.957 177.294 156.05 178.659C152.488 179.903 150.073 183.669 150.274 187.403L132.884 175.981C129.854 173.992 125.786 174.834 123.796 177.864C122.154 180.364 122.441 183.572 124.295 185.735L119.752 182.752C116.769 180.793 112.762 181.623 110.803 184.606Z" fill="#FEB35A"/>
</g>
<path d="M42.8691 17.0547C42.8691 17.9727 42.8464 18.7865 42.8008 19.4961C42.7617 20.2057 42.6608 20.9805 42.498 21.8203H44.8027V23.8125H37.8691V26.0098C38.9173 26.0879 39.819 26.2702 40.5742 26.5566C41.3294 26.8431 41.9089 27.224 42.3125 27.6992C42.7161 28.1745 42.9212 28.7279 42.9277 29.3594C42.9212 30.0885 42.6641 30.7103 42.1562 31.2246C41.6549 31.7389 40.9323 32.1296 39.9883 32.3965C39.0508 32.6634 37.9342 32.7969 36.6387 32.7969C35.3301 32.7969 34.2038 32.6634 33.2598 32.3965C32.3158 32.1296 31.5898 31.7389 31.082 31.2246C30.5807 30.7103 30.3301 30.0885 30.3301 29.3594C30.3301 28.7279 30.5286 28.1745 30.9258 27.6992C31.3294 27.224 31.9089 26.8464 32.6641 26.5664C33.4193 26.2799 34.3275 26.0944 35.3887 26.0098V23.8125H28.5332V21.8203H39.9883C40.1445 21.0521 40.2487 20.3424 40.3008 19.6914C40.3529 19.0404 40.3822 18.3503 40.3887 17.6211H30.5254V15.6484H42.8691V17.0547ZM36.6387 27.9336C34.0996 27.9336 32.8301 28.4089 32.8301 29.3594C32.8301 30.3359 34.0996 30.8242 36.6387 30.8242C39.1517 30.8242 40.4082 30.3359 40.4082 29.3594C40.4082 28.8841 40.0892 28.5293 39.4512 28.2949C38.8132 28.054 37.8757 27.9336 36.6387 27.9336ZM60.1543 17.25C60.1543 18.2005 60.1315 19.0404 60.0859 19.7695C60.0404 20.4987 59.9232 21.3125 59.7344 22.2109H62.0879V24.2227H45.8184V22.2109H57.2246C57.4004 21.4102 57.5176 20.6712 57.5762 19.9941C57.6348 19.3105 57.6673 18.5846 57.6738 17.8164H47.8105V15.8242H60.1543V17.25ZM60.0957 32.6016H47.752V26.0977H60.0957V32.6016ZM50.1934 30.6094H57.6152V28.0508H50.1934V30.6094ZM71.6777 19.7109H63.084V17.7383H66.1699V15.5117H68.6309V17.7383H71.6777V19.7109ZM67.4199 20.5117C68.1686 20.5117 68.8359 20.694 69.4219 21.0586C70.0143 21.4167 70.4766 21.9147 70.8086 22.5527C71.1471 23.1908 71.3197 23.9167 71.3262 24.7305C71.3197 25.5443 71.1471 26.2734 70.8086 26.918C70.4766 27.5625 70.0143 28.0671 69.4219 28.4316C68.8359 28.7897 68.1686 28.9688 67.4199 28.9688C66.6712 28.9688 65.9974 28.7897 65.3984 28.4316C64.806 28.0671 64.3405 27.5625 64.002 26.918C63.6634 26.2734 63.4941 25.5443 63.4941 24.7305C63.4941 23.9232 63.6634 23.2005 64.002 22.5625C64.3405 21.918 64.806 21.4167 65.3984 21.0586C65.9974 20.694 66.6712 20.5117 67.4199 20.5117ZM67.4199 22.582C66.8926 22.582 66.4694 22.7741 66.1504 23.1582C65.8379 23.5423 65.6816 24.0664 65.6816 24.7305C65.6816 25.3945 65.8379 25.9154 66.1504 26.293C66.4694 26.6706 66.8926 26.8594 67.4199 26.8594C67.9277 26.8594 68.3379 26.6706 68.6504 26.293C68.9694 25.9154 69.1322 25.3945 69.1387 24.7305C69.1322 24.0664 68.9694 23.5423 68.6504 23.1582C68.3379 22.7741 67.9277 22.582 67.4199 22.582ZM78.4746 32.7969H76.1113V24.2422H74.666V32.0352H72.3418V15.375H74.666V22.25H76.1113V15.0234H78.4746V32.7969ZM84.1777 26.7617H81.6777L81.4238 16.8594H84.4316L84.1777 26.7617ZM82.9473 31.1758C82.6478 31.1758 82.3711 31.1009 82.1172 30.9512C81.8633 30.8014 81.6615 30.6029 81.5117 30.3555C81.3685 30.1016 81.3001 29.8281 81.3066 29.5352C81.3001 29.2422 81.3685 28.972 81.5117 28.7246C81.6615 28.4772 81.8633 28.2819 82.1172 28.1387C82.3711 27.9889 82.6478 27.9141 82.9473 27.9141C83.2272 27.9141 83.4909 27.9889 83.7383 28.1387C83.9922 28.2819 84.194 28.4772 84.3438 28.7246C84.4935 28.972 84.5684 29.2422 84.5684 29.5352C84.5684 29.8281 84.4935 30.1016 84.3438 30.3555C84.194 30.6029 83.9922 30.8014 83.7383 30.9512C83.4909 31.1009 83.2272 31.1758 82.9473 31.1758Z" fill="white"/>
<defs>
<filter id="filter0_d_6_78" x="108.924" y="174.903" width="75.2915" height="73.9276" filterUnits="userSpaceOnUse" color-interpolation-filters="sRGB">
<feFlood flood-opacity="0" result="BackgroundImageFix"/>
<feColorMatrix in="SourceAlpha" type="matrix" values="0 0 0 0 0 0 0 0 0 0 0 0 0 0 0 0 0 0 127 0" result="hardAlpha"/>
<feOffset dx="5.16175" dy="5.16175"/>
<feGaussianBlur stdDeviation="2.58087"/>
<feComposite in2="hardAlpha" operator="out"/>
<feColorMatrix type="matrix" values="0 0 0 0 0 0 0 0 0 0 0 0 0 0 0 0 0 0 0.15 0"/>
<feBlend mode="normal" in2="BackgroundImageFix" result="effect1_dropShadow_6_78"/>
<feBlend mode="normal" in="SourceGraphic" in2="effect1_dropShadow_6_78" result="shape"/>
</filter>
</defs>
</svg>
