<svg width="162" height="162" viewBox="0 0 162 162" fill="none" xmlns="http://www.w3.org/2000/svg">
<circle cx="80.6" cy="80.6" r="80.6" fill="#FFC266"/>
<mask id="mask0_6_455" style="mask-type:alpha" maskUnits="userSpaceOnUse" x="33" y="62" width="95" height="71">
<path d="M33.8002 97.5C33.8002 78.1148 54.7532 62.4 80.6002 62.4C106.447 62.4 127.4 78.1148 127.4 97.5C127.4 116.885 106.447 132.6 80.6002 132.6C54.7532 132.6 33.8002 116.885 33.8002 97.5Z" fill="#FFC266"/>
</mask>
<g mask="url(#mask0_6_455)">
<path d="M135.2 132.6L23.4002 132.6L23.4002 96.2L135.2 96.2L135.2 132.6Z" fill="#FF570F"/>
</g>
<mask id="mask1_6_455" style="mask-type:alpha" maskUnits="userSpaceOnUse" x="49" y="83" width="63" height="24">
<path d="M49.4001 94.9C49.4001 88.4383 63.3688 83.2 80.6001 83.2C97.8313 83.2 111.8 88.4383 111.8 94.9C111.8 101.362 97.8313 106.6 80.6001 106.6C63.3688 106.6 49.4001 101.362 49.4001 94.9Z" fill="#FFC266"/>
</mask>
<g mask="url(#mask1_6_455)">
<path d="M117.226 106.6L41.2611 106.6L41.2611 96.2L117.226 96.2L117.226 106.6Z" fill="white"/>
</g>
<path d="M44.2002 65L61.0165 70.5438C61.4806 70.6969 61.4965 71.3476 61.0403 71.523L44.2002 78" stroke="black" stroke-width="7.8" stroke-linecap="round"/>
<path d="M117 65L100.184 70.5438C99.7196 70.6969 99.7037 71.3476 100.16 71.523L117 78" stroke="black" stroke-width="7.8" stroke-linecap="round"/>
</svg>
