<svg width="124" height="143" viewBox="0 0 124 143" fill="none" xmlns="http://www.w3.org/2000/svg">
<circle cx="62" cy="62" r="62" fill="#FFC266"/>
<circle cx="41" cy="57" r="7" fill="black"/>
<circle cx="83" cy="57" r="7" fill="black"/>
<path d="M50 84C50 83.4696 51.2643 82.9609 53.5147 82.5858C55.7652 82.2107 58.8174 82 62 82C65.1826 82 68.2348 82.2107 70.4853 82.5858C72.7357 82.9609 74 83.4696 74 84" stroke="#F78600" stroke-width="6" stroke-linecap="round"/>
<path d="M73.0353 40.0043C74.2974 36.4719 80.4452 30.567 88.4901 35.8632" stroke="#A75D05" stroke-width="6" stroke-linecap="round"/>
<path d="M34 42H50" stroke="#A75D05" stroke-width="6" stroke-linecap="round"/>
<path fill-rule="evenodd" clip-rule="evenodd" d="M55.2592 92.4693C56.5973 94.7644 55.8216 97.7098 53.5264 99.048L49.1367 101.607C51.1256 101.115 53.2812 101.962 54.3654 103.822C55.5425 105.84 55.0586 108.37 53.3311 109.827C54.4305 110.163 55.411 110.898 56.0358 111.97C57.1079 113.809 56.8022 116.071 55.4338 117.561C56.3247 117.949 57.1046 118.613 57.6315 119.517C58.9493 121.777 58.1854 124.678 55.9251 125.995L43.5628 133.203C43.0574 133.498 42.5199 133.689 41.9753 133.782C34.0045 138.098 23.9907 135.331 19.3923 127.444C15.3977 120.593 16.7781 112.088 22.2456 106.82L25.2015 95.0263C25.939 92.0836 28.8123 90.6313 31.6191 91.7826C34.1811 92.8335 35.8022 95.6905 35.5044 98.4188L48.6804 90.7365C50.9756 89.3984 53.921 90.1741 55.2592 92.4693Z" fill="#FFA01D"/>
</svg>
